<?xml version="1.0" encoding="utf-8"?>
<!-- Generator: Adobe Illustrator 21.0.2, SVG Export Plug-In . SVG Version: 6.00 Build 0)  -->
<svg version="1.1"
	 id="Layer_1" xmlns:cc="http://creativecommons.org/ns#" xmlns:dc="http://purl.org/dc/elements/1.1/" xmlns:rdf="http://www.w3.org/1999/02/22-rdf-syntax-ns#"
	 xmlns="http://www.w3.org/2000/svg" xmlns:xlink="http://www.w3.org/1999/xlink" x="0px" y="0px" viewBox="0 0 16 16"
	 style="enable-background:new 0 0 16 16;" xml:space="preserve">
<path style="fill:#FFFFFF;" d="M0,0v0.5v3.7v0.5h0.5h0.5v6.5H0.5H0v0.5v3.7V16h0.5h5.7h0.5v-0.5v-3.7v-0.5H6.2H5.7V8.7l4.5,7.1l0.2,0.2h0.3h4.8H16v-0.5
	v-3.7v-0.5h-0.5h-0.5V4.7h0.5H16V4.2V0.5V0h-0.5H9.8H9.3v0.5v3.7v0.5h0.5h0.5v2.6L5.8,0.2L5.7,0H5.4H0.5L0,0L0,0z M0.2,0.2h0.3h4.8
	h0.2l0.1,0.1l4.9,7.7V4.5H9.8H9.5V4.2V0.5V0.2h0.3h5.7h0.3v0.3v3.7v0.3h-0.3h-0.7v6.9h0.7h0.3v0.3v3.7v0.3h-0.3h-4.8h-0.2l-0.1-0.1
	L5.5,7.9v3.5h0.7h0.3v0.3v3.7v0.3H6.2H0.5H0.2v-0.3v-3.7v-0.3h0.3h0.7V4.5H0.5H0.2V4.2V0.5L0.2,0.2L0.2,0.2z M0.5,0.5v3.7h1.1v7.6
	H0.5v3.7h5.7v-3.7H5.2V6.8l5.5,8.6h4.8v-3.7h-1.1V4.2h1.1V0.5H9.8v3.7h1.1v4.9L5.4,0.5C5.4,0.5,0.5,0.5,0.5,0.5z"/>
</svg>
